<mxfile host="app.diagrams.net" modified="2023-04-14T06:02:45.418Z" agent="Mozilla/5.0 (Windows NT 10.0; Win64; x64) AppleWebKit/537.36 (KHTML, like Gecko) Chrome/111.0.0.0 Safari/537.36" version="21.1.5" etag="M1pYq0AqxkaJ6qW0BiQG" type="github">
  <diagram name="Page-1" id="Ppac1HoT1816pR8wKc-n">
    <mxGraphModel>
      <root>
        <mxCell id="0" />
        <mxCell id="1" parent="0" />
      </root>
    </mxGraphModel>
  </diagram>
</mxfile>
